<svg width="24" height="24" viewBox="0 0 24 24" fill="none" xmlns="http://www.w3.org/2000/svg">
<rect width="24" height="24" rx="5" fill="black"/>
<path d="M5.25014 20.4999C5.4822 20.4999 5.70476 20.4077 5.86885 20.2436C6.03295 20.0795 6.12513 19.8569 6.12513 19.6249V13.4999C6.12513 13.2678 6.03295 13.0453 5.86885 12.8812C5.70476 12.7171 5.4822 12.6249 5.25014 12.6249C5.01807 12.6249 4.79551 12.7171 4.63142 12.8812C4.46732 13.0453 4.37514 13.2678 4.37514 13.4999V19.6249C4.37514 19.8569 4.46732 20.0795 4.63142 20.2436C4.79551 20.4077 5.01807 20.4999 5.25014 20.4999Z" fill="white"/>
<path d="M8.74986 11.75V19.625C8.74986 19.8571 8.84205 20.0796 9.00615 20.2437C9.17024 20.4078 9.3928 20.5 9.62487 20.5C9.85693 20.5 10.0795 20.4078 10.2436 20.2437C10.4077 20.0796 10.4999 19.8571 10.4999 19.625V11.75C10.4999 11.5179 10.4077 11.2954 10.2436 11.1313C10.0795 10.9672 9.85693 10.875 9.62487 10.875C9.3928 10.875 9.17024 10.9672 9.00615 11.1313C8.84205 11.2954 8.74986 11.5179 8.74986 11.75Z" fill="white"/>
<path d="M13.125 14.375V19.625C13.125 19.8571 13.2172 20.0796 13.3813 20.2437C13.5454 20.4078 13.7679 20.5 14 20.5C14.2321 20.5 14.4546 20.4078 14.6187 20.2437C14.7828 20.0796 14.875 19.8571 14.875 19.625V14.375C14.875 14.1429 14.7828 13.9204 14.6187 13.7563C14.4546 13.5922 14.2321 13.5 14 13.5C13.7679 13.5 13.5454 13.5922 13.3813 13.7563C13.2172 13.9204 13.125 14.1429 13.125 14.375Z" fill="white"/>
<path d="M17.5002 10.8749V19.6249C17.5002 19.8569 17.5923 20.0795 17.7564 20.2436C17.9205 20.4077 18.1431 20.4999 18.3752 20.4999C18.6072 20.4999 18.8298 20.4077 18.9939 20.2436C19.158 20.0795 19.2502 19.8569 19.2502 19.6249V10.8749C19.2502 10.6428 19.158 10.4203 18.9939 10.2562C18.8298 10.0921 18.6072 9.99988 18.3752 9.99988C18.1431 9.99988 17.9205 10.0921 17.7564 10.2562C17.5923 10.4203 17.5002 10.6428 17.5002 10.8749Z" fill="white"/>
<path d="M5.24986 10.875C5.4819 10.8749 5.70443 10.7827 5.86848 10.6186L9.00623 7.48086C9.17301 7.32199 9.39452 7.23337 9.62486 7.23337C9.8552 7.23337 10.0767 7.32199 10.2435 7.48086L12.144 9.38137C12.6362 9.87348 13.3038 10.1499 13.9999 10.1499C14.6959 10.1499 15.3635 9.87348 15.8557 9.38137L20.7435 4.49362C20.9029 4.32859 20.9911 4.10756 20.9891 3.87814C20.9871 3.64872 20.8951 3.42926 20.7328 3.26702C20.5706 3.10479 20.3511 3.01277 20.1217 3.01078C19.8923 3.00878 19.6713 3.09698 19.5062 3.25637L14.6185 8.14324C14.4544 8.30728 14.2319 8.39943 13.9999 8.39943C13.7678 8.39943 13.5453 8.30728 13.3812 8.14324L11.4807 6.24362C10.9885 5.7515 10.3209 5.47505 9.62486 5.47505C8.9288 5.47505 8.26124 5.7515 7.76898 6.24362L4.63123 9.38137C4.5089 9.50374 4.4256 9.65963 4.39185 9.82934C4.3581 9.99905 4.37543 10.175 4.44164 10.3348C4.50785 10.4947 4.61997 10.6313 4.76383 10.7275C4.90769 10.8236 5.07683 10.875 5.24986 10.875V10.875Z" fill="white"/>
</svg>
