<svg width="800" height="800" viewBox="0 0 800 800" fill="none" xmlns="http://www.w3.org/2000/svg">
<path d="M400.037 600.075C510.501 600.075 600.05 510.526 600.05 400.062C600.05 289.598 510.501 200.05 400.037 200.05C289.574 200.05 200.025 289.598 200.025 400.062C200.025 510.526 289.574 600.075 400.037 600.075Z" fill="black"/>
<path fill-rule="evenodd" clip-rule="evenodd" d="M150.013 399.962C150.013 372.325 127.65 349.962 100.013 349.962H50C22.3625 349.962 0 372.325 0 399.962C0 427.6 22.3625 449.962 50 449.962H100C127.65 449.962 150.013 427.6 150.013 399.962Z" fill="black"/>
<path fill-rule="evenodd" clip-rule="evenodd" d="M152.55 576.738L117.15 612.15C97.6125 631.675 97.6125 663.325 117.15 682.85C136.675 702.375 168.325 702.375 187.863 682.85L223.275 647.45C242.8 627.925 242.8 596.263 223.275 576.738C203.725 557.2 172.088 557.2 152.55 576.738Z" fill="black"/>
<path fill-rule="evenodd" clip-rule="evenodd" d="M400.037 649.987C372.4 649.987 350.037 672.35 350.037 699.987V750C350.037 777.637 372.4 800 400.037 800C427.675 800 450.037 777.637 450.037 750L449.987 699.987C450.037 672.35 427.625 649.987 400.037 649.987Z" fill="black"/>
<path fill-rule="evenodd" clip-rule="evenodd" d="M647.475 576.788C627.988 557.213 596.338 557.213 576.813 576.738C557.288 596.263 557.288 627.925 576.813 647.45L612.175 682.8C631.7 702.425 663.35 702.325 682.875 682.8C702.4 663.275 702.45 631.675 682.875 612.1L647.475 576.788Z" fill="black"/>
<path fill-rule="evenodd" clip-rule="evenodd" d="M750.075 349.962L699.963 350.062C672.425 349.962 650.063 372.325 650.063 399.962C649.963 427.6 672.425 449.962 699.963 449.962H749.975C777.713 450.062 799.975 427.6 799.975 399.962C800.025 372.375 777.713 349.962 750.075 349.962Z" fill="black"/>
<path fill-rule="evenodd" clip-rule="evenodd" d="M647.475 223.237L682.825 187.875C702.5 168.3 702.35 136.7 682.825 117.162C663.338 97.5747 631.7 97.5747 612.175 117.112L576.813 152.562C557.288 172 557.288 203.637 576.813 223.175C596.238 242.825 627.988 242.725 647.475 223.237Z" fill="black"/>
<path fill-rule="evenodd" clip-rule="evenodd" d="M400.037 149.937C427.625 150.137 450.037 127.575 450.037 100.037V50.0374C450.037 22.2999 427.675 0.0374435 400.037 0.0374435C372.4 -0.0625566 350.037 22.2999 350.037 49.9499L350.137 100.05C350.037 127.575 372.4 149.937 400.037 149.937Z" fill="black"/>
<path fill-rule="evenodd" clip-rule="evenodd" d="M152.65 223.187C172.087 242.712 203.637 242.712 223.225 223.137C242.9 203.75 242.8 172.012 223.325 152.525L187.962 117.175C168.337 97.5374 136.788 97.6874 117.25 117.175C97.5625 136.662 97.5625 168.3 117.1 187.837L152.65 223.187Z" fill="black"/>
</svg>
