<svg width="64" height="64" viewBox="0 0 64 64" fill="none" xmlns="http://www.w3.org/2000/svg">
<path d="M52 56.9998H51.9995L39.9978 56.9982C38.6723 56.9965 37.4016 56.4691 36.4644 55.5318C35.5272 54.5945 35 53.3237 34.9985 51.9982V40.9979H28.9985V51.9982C28.997 53.3237 28.4698 54.5945 27.5326 55.5319C26.5953 56.4692 25.3246 56.9965 23.999 56.9982L12.0007 56.9998C11.3441 56.9998 10.6938 56.8706 10.0871 56.6194C9.48039 56.3681 8.92911 55.9998 8.46474 55.5355C8.00037 55.0712 7.632 54.52 7.38068 53.9133C7.12936 53.3067 7.00001 52.6564 7 51.9998V28.8846C7.00057 28.1881 7.14642 27.4992 7.42824 26.8622C7.71006 26.2252 8.12165 25.6539 8.63672 25.1849L28.6348 7.00159C29.553 6.16059 30.753 5.69406 31.9982 5.69397C33.2434 5.69388 34.4434 6.16022 35.3618 7.00109L55.3635 25.1851C55.8784 25.6541 56.2899 26.2254 56.5717 26.8624C56.8534 27.4995 56.9993 28.1882 57 28.8848V51.9998C57 53.3258 56.4732 54.5976 55.5355 55.5353C54.5978 56.473 53.3261 56.9997 52 56.9998ZM40.9985 50.9983L51 50.9996V29.327L31.9985 12.0525L13 29.327V50.9996L22.9985 50.9983V39.9979C23 38.6723 23.5273 37.4014 24.4647 36.464C25.402 35.5267 26.6729 34.9994 27.9985 34.9979H35.9985C37.3242 34.9994 38.5951 35.5267 39.5324 36.464C40.4698 37.4014 40.997 38.6723 40.9985 39.9979V50.9983Z" fill="black" stroke="black" stroke-width="0.00064"/>
</svg>
