<svg width="800" height="800" viewBox="0 0 800 800" fill="none" xmlns="http://www.w3.org/2000/svg">
<path d="M400.037 600.038C510.501 600.038 600.05 510.489 600.05 400.025C600.05 289.561 510.501 200.013 400.037 200.013C289.574 200.013 200.025 289.561 200.025 400.025C200.025 510.489 289.574 600.038 400.037 600.038Z" fill="#6A6A6A"/>
<path fill-rule="evenodd" clip-rule="evenodd" d="M150.013 399.926C150.013 372.288 127.65 349.926 100.013 349.926H50C22.3625 349.926 0 372.288 0 399.926C0 427.563 22.3625 449.926 50 449.926H100C127.65 449.926 150.013 427.563 150.013 399.926Z" fill="#6A6A6A"/>
<path fill-rule="evenodd" clip-rule="evenodd" d="M152.55 576.7L117.15 612.113C97.6125 631.638 97.6125 663.288 117.15 682.813C136.675 702.338 168.325 702.338 187.863 682.813L223.275 647.413C242.8 627.888 242.8 596.225 223.275 576.7C203.725 557.163 172.088 557.163 152.55 576.7Z" fill="#6A6A6A"/>
<path fill-rule="evenodd" clip-rule="evenodd" d="M400.037 649.95C372.4 649.95 350.038 672.313 350.038 699.95V749.963C350.038 777.6 372.4 799.963 400.037 799.963C427.675 799.963 450.037 777.6 450.037 749.963L449.988 699.95C450.038 672.313 427.625 649.95 400.037 649.95Z" fill="#6A6A6A"/>
<path fill-rule="evenodd" clip-rule="evenodd" d="M647.475 576.751C627.988 557.176 596.338 557.175 576.813 576.7C557.288 596.225 557.288 627.888 576.813 647.413L612.175 682.763C631.7 702.388 663.35 702.288 682.875 682.763C702.4 663.238 702.45 631.638 682.875 612.063L647.475 576.751Z" fill="#6A6A6A"/>
<path fill-rule="evenodd" clip-rule="evenodd" d="M750.075 349.926L699.963 350.026C672.425 349.926 650.063 372.288 650.063 399.926C649.963 427.563 672.425 449.926 699.963 449.926H749.975C777.713 450.026 799.975 427.563 799.975 399.926C800.025 372.338 777.713 349.926 750.075 349.926Z" fill="#6A6A6A"/>
<path fill-rule="evenodd" clip-rule="evenodd" d="M647.475 223.201L682.825 187.838C702.5 168.263 702.35 136.663 682.825 117.126C663.338 97.5381 631.7 97.5381 612.175 117.076L576.813 152.526C557.288 171.963 557.288 203.601 576.813 223.138C596.238 242.788 627.988 242.688 647.475 223.201Z" fill="#6A6A6A"/>
<path fill-rule="evenodd" clip-rule="evenodd" d="M400.037 149.9C427.625 150.1 450.037 127.538 450.037 100V50.0003C450.037 22.2628 427.675 0.000334079 400.037 0.000334079C372.4 -0.0996659 350.038 22.2628 350.038 49.9128L350.137 100.013C350.037 127.538 372.4 149.9 400.037 149.9Z" fill="#6A6A6A"/>
<path fill-rule="evenodd" clip-rule="evenodd" d="M152.65 223.15C172.087 242.675 203.637 242.675 223.225 223.1C242.9 203.713 242.8 171.975 223.325 152.488L187.962 117.138C168.337 97.5002 136.788 97.6502 117.25 117.138C97.5625 136.625 97.5625 168.263 117.1 187.8L152.65 223.15Z" fill="#6A6A6A"/>
</svg>
